# xmcd
#
# Track frame offsets: 
#        150
#        10743
#        19270
#        27941
#        38368
#        50456
#        61719
#        72139
#        78935
#        89963
#
# Disc length: 1355 seconds
#
# Revision: 4
# Processed by: cddbd v1.4PL0 Copyright (c) Steve Scherf et al.
# Submitted via: ExactAudioCopy v0.90b3
#
DISCID=7105490a
DTITLE=Waylon Jennings - Burning Memories
DYEAR=1900
DGENRE=Country
TTITLE0=Burning Memories
TTITLE1=Abilene
TTITLE2=Money (That's What I Want)
TTITLE3=Don't Think Twice, I'ts Alright
TTITLE4=Lorena
TTITLE5=It's So Easy
TTITLE6=Dream Baby
TTITLE7=Crying
TTITLE8=Big Mamou
TTITLE9=White Lightning
EXTD=
EXTT0=
EXTT1=
EXTT2=
EXTT3=
EXTT4=
EXTT5=
EXTT6=
EXTT7=
EXTT8=
EXTT9=
PLAYORDER=
